PathFileType	4	(X/Y/Z)	19_coords_data.trc
DataRate	CameraRate	NumFrames	NumMarkers	Units	OrigDataRate	OrigDataStartFrame	OrigNumFrames
30.0	30.0	8	21	m	30.0	38	75
Frame#	Time	THUMB_TIP	THUMB_IP	THUMB_MCP	THUMB_CMC	INDEX_TIP	INDEX_DIP	INDEX_PIP	INDEX_MCP	MIDDLE_TIP	MIDDLE_DIP	MIDDLE_PIP	MIDDLE_MCP	RING_TIP	RING_DIP	RING_PIP	RING_MCP	PINKY_TIP	PINKY_DIP	PINKY_PIP	PINKY_MCP	WRIST
X1	Y1	Z1	X2	Y2	Z2	X3	Y3	Z3	X4	Y4	Z4	X5	Y5	Z5	X6	Y6	Z6	X7	Y7	Z7	X8	Y8	Z8	X9	Y9	Z9	X10	Y10	Z10	X11	Y11	Z11	X12	Y12	Z12	X13	Y13	Z13	X14	Y14	Z14	X15	Y15	Z15	X16	Y16	Z16	X17	Y17	Z17	X18	Y18	Z18	X19	Y19	Z19	X20	Y20	Z20	X21	Y21	Z21
36	1.233333333333328	0.5120001843577144	0.07302061566103324	-0.11058060982079546	0.5090406129727476	0.054981328142681196	-0.0966585035488439	0.4967156439368786	0.027393125906283844	-0.0891881464202644	0.482095407318963	-0.005100311474817154	-0.06234945777128925	0.5070141609200307	0.13745801317799922	-0.032749307363341945	0.49938439797329404	0.12201864377660254	-0.03835400091998009	0.4912154310149407	0.09937942855035908	-0.045616489871651844	0.48764450422100514	0.057698813629067924	-0.05359213502520557	0.48603919440546767	0.13628053522024586	0.0072864185481876925	0.4831728345709808	0.12021337177228231	-0.0005640744322347735	0.4793012476169731	0.09460372352989133	-0.013926943935397701	0.4812838989473668	0.05359738986346585	-0.031553560568769554	0.49052394905191254	0.11530995693066937	0.028344002514107507	0.4862922939162455	0.09988359375653433	0.020030133737630844	0.48165703978987595	0.07859085590380699	0.007975519976957834	0.48220639737121396	0.04411088370570704	-0.013132548562491408	0.49273801702513975	0.06932681108512984	0.05811539510488167	0.4898746752387676	0.058875193893322963	0.04486530182632924	0.48706355843632054	0.046510916712383166	0.028131076683948375	0.48439179865770027	0.02627726642043393	-0.0016068544234514176	0.4622830810018609	-0.023011742144276925	-0.051989820119430985
37	1.2666666666666608	0.5100302402816892	0.07434534900551548	-0.10946574246891122	0.5076366896469631	0.05614026492682045	-0.0956510463431671	0.4964351614966882	0.028037373777205832	-0.08833166958475958	0.48214462021911264	-0.004836715698931626	-0.06178049877990022	0.5008577717108518	0.1387964099637169	-0.03161795819570265	0.4940794485723388	0.12308916893677757	-0.03756244427538494	0.48709243696964527	0.10013713817373227	-0.045072157033942795	0.4857162459504327	0.058290753112096416	-0.05285818616000862	0.4771369260167423	0.1369878708294927	0.007620678547125642	0.4757040524858578	0.1208146962113209	-0.0004027431802057224	0.4738850649560771	0.09503507045306181	-0.013875372104458661	0.4786281201645136	0.054089465677354176	-0.031112216300577297	0.4816956332043913	0.11593476302089833	0.029566939973042466	0.47884735436259873	0.1004082749321833	0.020859731736736692	0.4759291645711191	0.07899086882233863	0.008492077841721013	0.47912454882517214	0.044588706411639034	-0.012507959656740841	0.48594155349220125	0.06917223574884102	0.05973736134665014	0.4841000100817624	0.05883209453257132	0.04622106756858099	0.4824144991448668	0.046644486582819056	0.029208328684299664	0.48138752736184437	0.02678323165144869	-0.0008808609443360094	0.4622830810018609	-0.023011742144276925	-0.051989820119430985
38	1.299999999999994	0.5094270140621983	0.07537504718819055	-0.1078697693738234	0.5070366212508239	0.0569590378026662	-0.09433697141776101	0.49645159096571595	0.028505289263327294	-0.08746956084874585	0.4822233939887603	-0.004620301598460275	-0.061198975761192015	0.4957844506872823	0.13964380187672631	-0.030711035593099914	0.48951645556672396	0.12383765945257608	-0.03694626604883611	0.4833254978025108	0.10073722047785283	-0.0446955624128173	0.48371387695195533	0.05884518492619084	-0.05234687687338935	0.4700350710803418	0.1373583539738651	0.0076897171568972855	0.4695441978466916	0.12117037634968941	-0.0004163561161288909	0.46910959960732895	0.09534351233181015	-0.013914273339623737	0.475860526199536	0.054552306138617834	-0.030845026673457038	0.4745157175972616	0.11623521316965624	0.03030981565352267	0.4726387248982624	0.1006949811531268	0.021366768785684914	0.470911452559497	0.07925848692564219	0.008809968854860212	0.47606990514193465	0.04502515906768201	-0.012075204467958067	0.4805691884458272	0.06889827249127889	0.060940968776264676	0.4794282630303593	0.0587078331635319	0.04723501257088267	0.478490446584568	0.046712947417577255	0.03002875686967047	0.478507388348293	0.02722534162851087	-0.0003211423820007331	0.4622830810018609	-0.023011742144276925	-0.051989820119430985
39	1.3333333333333275	0.5103971117734101	0.07611800177274564	-0.10570832714195474	0.5074276966981967	0.05746579975955424	-0.09262100754739316	0.49690143318947	0.028822357700697077	-0.08649148851522245	0.482323972608942	-0.004426880638319086	-0.06057092152878377	0.4918201320654598	0.14007792858336043	-0.029725085865505305	0.48579430694852166	0.1242946298583012	-0.036250184563273474	0.4800653896389573	0.10117175013349788	-0.04428272915962986	0.4818543980787595	0.05931030147280425	-0.05190208994846429	0.46455575690019363	0.13746344799108812	0.007911160191432204	0.4646452795769951	0.12130650616680183	-0.00027084546592164027	0.4650539010841182	0.09550504748292732	-0.01381807057840273	0.47317395811530427	0.05491927431964605	-0.030640900647952884	0.46894262394728703	0.11625229198410436	0.030970620956111375	0.4676630157071563	0.100754804509259	0.021849739161087234	0.46668768820525464	0.07937311425853022	0.009119773046209964	0.4731776147020255	0.04535219366788945	-0.011741162940265643	0.4764767177148599	0.06847395449828708	0.061937890216038405	0.47573110415430203	0.05845152187943192	0.048081667613221274	0.4751819594846953	0.046683559120996754	0.030702786416552594	0.4758381704733572	0.02753232089802149	0.00014656098432325182	0.4622830810018609	-0.023011742144276925	-0.051989820119430985
40	1.3666666666666607	0.5129160658074736	0.07637430844898696	-0.10313884610573051	0.5088524723795905	0.05754738309452234	-0.09060752174833384	0.4978284553874174	0.028905358403184533	-0.08541854584387262	0.4824811018962361	-0.004289247959453735	-0.05987511519632216	0.4890350207564862	0.14018980229790368	-0.028656451715135103	0.48302443182526017	0.12453431282567096	-0.03549593050263282	0.47747046684501604	0.10149238992735432	-0.04387644929005047	0.4801706767367452	0.05969141020955604	-0.0515590956552574	0.4604759153671964	0.13741099619377262	0.008310875229428902	0.4608495492078586	0.12131223842846894	2.2908279254177377e-05	0.4617150109697866	0.09559230890875126	-0.013657214214327335	0.4706594267116584	0.05519552397768368	-0.030516784649828932	0.4647439780260123	0.11611603753642363	0.03161987728493518	0.46375677427103934	0.10069601444992715	0.022332880097572255	0.4631614551793146	0.07940232171310146	0.00943310398289926	0.47045535333220756	0.04558415145103656	-0.011491791330129592	0.4734167300729688	0.06796525347326776	0.06280723892026198	0.4728234974191488	0.05811656145444832	0.04881969658656796	0.4723689012926806	0.0465767736853413	0.031285767773955295	0.4733203500163766	0.02772514692313266	0.0005515138421521293	0.4622830810018609	-0.023011742144276925	-0.051989820119430985
41	1.3999999999999937	0.516357818746214	0.0759140717886928	-0.10079139457067099	0.5110395488382702	0.05709288623845277	-0.08872992784105255	0.4991473879404846	0.028655177435002344	-0.0844063613512962	0.48271483475426724	-0.004264790313257105	-0.05918460647111981	0.4875277194080788	0.14000843620097558	-0.027577873789611934	0.48136949343696095	0.12456498139245287	-0.03475951402466723	0.47575461514753814	0.10168599143516788	-0.04353646072209169	0.47896097246253	0.05994235822819405	-0.05133546408471559	0.4578108748147061	0.13723210446327772	0.00887547702507449	0.458260403179933	0.12121692823011188	0.00043083052747083794	0.4592866946974965	0.09562944456771094	-0.01348451911051339	0.468595745282366	0.05539147520812193	-0.030525508519145803	0.46182758928667067	0.11587333430611624	0.03229266507470672	0.46090627126688133	0.10055715887766703	0.02282873653781549	0.46040020389426894	0.0793941538562668	0.009711911720865052	0.4680651892155321	0.045738026944684984	-0.011341210502129037	0.4711474585091454	0.06733134613510161	0.06359975473428144	0.4705600971636751	0.05765905857146836	0.04948940888677536	0.4700444983349902	0.04636926830700905	0.03179514957386882	0.4710590790918676	0.027835625351039228	0.0008701086576726469	0.4622830810018609	-0.023011742144276925	-0.051989820119430985
42	1.4333333333333271	0.5194987443314265	0.07531579158968449	-0.0988030349378238	0.513034128563846	0.05653652021348321	-0.08724675051952854	0.5003191286753204	0.02835866851913571	-0.08361943033430216	0.4828675044075605	-0.004240136870865663	-0.05866650069544502	0.48698032371085653	0.1396817420252845	-0.026711381362882675	0.4805674819716196	0.12449225882876913	-0.03420504942667363	0.47474115178164	0.10181103511413625	-0.04334976376470018	0.47812565326444467	0.060105442227861294	-0.0512759712889318	0.4564604417922612	0.13709861994303907	0.009300051792967945	0.45680777241984966	0.12116412452660474	0.0006993996514863265	0.4577755455669853	0.0957030513509588	-0.013450042665442197	0.4670729231157863	0.055538480767107656	-0.0306696234248537	0.4601917688289382	0.11577575086970171	0.032641299449025524	0.459154604801973	0.1005461780570096	0.02305044950107632	0.45853755552016584	0.07948597252090406	0.009773892268088002	0.46619969102223635	0.04589121589380962	-0.01137805423132926	0.46980895535534384	0.06695392706149195	0.06405342669463472	0.4691057039872109	0.05739333952789816	0.04987243224693447	0.46839848285546004	0.04629150937947635	0.03206621915637527	0.4692542466126577	0.027967531911699428	0.0010117030733274857	0.4622830810018609	-0.023011742144276925	-0.051989820119430985
43	1.4666666666666603	0.5220633767886602	0.07483535092828708	-0.0969479869410102	0.5146166881647297	0.05603334781687819	-0.08603783077637192	0.5012069605482735	0.02810019273768971	-0.08308181105815865	0.4829649073999368	-0.004240473234874753	-0.058359375470533686	0.4870596045858522	0.13935035256235084	-0.026263050820689304	0.48037567541646264	0.12439996691250665	-0.03399681185782487	0.47428453803428544	0.10189651955480916	-0.04340440110325758	0.4776196039331204	0.06020131618382629	-0.05140586630050842	0.4560719502482634	0.13706839221704636	0.009444066164370588	0.45623562953162133	0.1211993758094263	0.0007178111058195602	0.4570275114089374	0.09582751361173125	-0.013601793697161288	0.4660907937006932	0.05567247993304336	-0.030967797997615454	0.4595662438941174	0.11585677888101942	0.0326447544736569	0.45832683905930516	0.10068488720782665	0.02298672264971116	0.4574798373990332	0.07969024723785001	0.009619312290237755	0.46490305281191197	0.046064808701128945	-0.01156904748930182	0.469194890732297	0.06687926520874676	0.06418402076759709	0.46833328976267335	0.0573743088803188	0.04997439554510019	0.46738352400374583	0.04637657557825847	0.03211494913094941	0.4679742040607505	0.02812831122464432	0.0010097181215054096	0.4622830810018609	-0.023011742144276925	-0.051989820119430985
